<svg id="Layer_1" xmlns="http://www.w3.org/2000/svg" width="153.8" height="80" viewBox="0 0 153.8 80"><style>.st0{fill:#B7E2E6;}</style><path class="st0" d="M34.4 79.9c0-8 6.5-14.8 14.5-14.8S63.3 72 63.3 79.9c0 .1 0-.1 0 0h34.6c-.7-11.2-2.4-13.4-2.4-13.4L81.7 71c-2.3-8.9-6.3-12.3-6.3-12.3l11-8.8c-3.9-6.7-13.8-12.3-13.8-12.3L65 50.3c-6.7-3.7-12.5-3.9-12.5-3.9l1.9-14.2c-9.5-1.7-19 .9-19 .9l3.9 14.5C33 49 27.4 53.8 27.4 53.8l-9.3-11.2C11.4 46.9 6.2 57 6.2 57l13.1 7.3c-3.8 4.9-4.1 12.1-4.1 12.1L0 75.3V80h34.4v-.1z"/><path class="st0" d="M151.9 47.1c3.3-5.8 1.9-14 1.9-14H143c-.2-5-2.8-8.8-2.8-8.8l9.5-5.2c-3.7-8.4-8.4-10.6-8.4-10.6l-7.5 8.4c-3.6-4.1-8.4-4.9-8.4-4.9l2.6-9.9c-4.1-3-13.1-1.9-13.1-1.9l1.1 11c-5.4-.6-9.7 2.6-9.7 2.6l-5.4-9.5c-6.5 1.9-10.5 8.4-10.5 8.4l8.4 7.5c-4.1 2.6-4.9 8.4-4.9 8.4l-10.1-3.3c-3.2 5.2-2 14-2 14l11.4-.7c0 4.9 2.6 9.2 2.6 9.2l-9.7 4.7c1.9 7.5 9.3 11.9 9.3 11.9l6-9.3c4.1 3.4 9.3 5 9.3 5l-4.1 10.3C113.7 74 121 72 121 72l-1.3-11.2c5.8.2 10.1-2.8 10.1-2.8l5.4 9.5c8.4-4.1 9.5-8.8 9.5-8.8l-7.3-6.1c4.3-5.4 4.7-8.8 4.7-8.8l9.8 3.3zm-34.1.3c-6.3 0-11.3-5.1-11.3-11.3s5.1-11.3 11.3-11.3c6.3 0 11.3 5.1 11.3 11.3s-5.1 11.3-11.3 11.3z"/></svg>